<?xml version="1.0" encoding="utf-8"?>
<!-- Generator: Adobe Illustrator 27.5.0, SVG Export Plug-In . SVG Version: 6.00 Build 0)  -->
<svg version="1.1" id="BASE" xmlns="http://www.w3.org/2000/svg" xmlns:xlink="http://www.w3.org/1999/xlink" x="0px" y="0px"
	 viewBox="0 0 2279 1975" style="enable-background:new 0 0 2279 1975;" xml:space="preserve">
<g>
	<path style="fill:#EDE4C3;" d="M2126.727,1351.991l-241.048-896.996l-0.071-0.321c-3.124-14.25-21.269-18.676-30.603-7.464
		l-27.016,17.58l-59.155-5.698l-21.858-2.105l-84.38-8.129l-11.696-1.126l-0.802-0.077
		c-115.739-76.144-231.477-152.287-347.214-228.431c-20.513-13.495-46.038-16.963-69.408-9.43L191.406,545.699
		c-16.073,5.181-19.159,26.582-5.204,36.093l41.313,28.154v232.738l-59.507,17.104c-6.698,1.192-12.47,5.918-15.04,13.719
		c-2.86,8.686,0.306,17.782,7.26,22.872l130.265,95.338l-99.087,31.94c-16.073,5.181-19.159,26.582-5.204,36.093l41.313,28.154
		v232.738l-59.507,17.104c-6.698,1.192-12.47,5.918-15.04,13.719c-2.86,8.686,0.306,17.782,7.26,22.872l511.132,374.089
		c28.351,20.749,65.748,24.423,97.595,9.587l449.052-209.197l61.361,173.499c2.691,1.628,5.675,3.378,8.942,5.212
		c15.93,8.953,38.616,19.9,67.081,28.289c19.246,5.677,41.134,10.185,65.358,12.117c12.022,0.959,23.555,1.196,34.531,0.888
		c45.25-1.26,81.03-11.853,102.394-19.689c0,0,5.553-3.651,15.555-10.193c6.183-4.061,14.25-9.37,23.907-15.739
		c64.942-42.764,198.241-130.994,309.582-207.608C2025.545,1434.239,2128.643,1360.748,2126.727,1351.991z"/>
	<g>
		<path style="fill:#00AAAC;" d="M2126.727,1351.991l-241.048-896.996l-0.071-0.321c-3.124-14.25-21.269-18.676-30.603-7.464
			l-27.016,17.58l-59.155-5.698l-21.858-2.105l-84.38-8.129l-11.696-1.126l-0.802-0.077
			c-115.739-76.144-231.477-152.287-347.214-228.431c-20.513-13.495-46.038-16.963-69.408-9.43L191.406,545.699
			c-16.073,5.181-19.159,26.582-5.204,36.093l41.313,28.154l400.54,272.959l73.622,50.173l3.356,2.287
			c8.528,13.948,23.164,40.64,32.442,77.194c1.246,4.908,2.393,9.996,3.419,15.253c2.827,14.508,4.707,30.314,5.057,47.278
			c0.025,1.22,0.044,2.445,0.054,3.677c0.024,3.114-0.008,6.191-0.086,9.231c-0.378,14.57-1.884,28.28-4.14,41.032
			c-0.688,3.888-1.446,7.687-2.262,11.394c-2.962,13.44-6.7,25.675-10.706,36.572c-1.306,3.552-2.639,6.961-3.984,10.225
			c-7.187,17.433-14.68,30.68-19.793,39.043c-25.161-17.519-50.321-35.039-75.482-52.558
			c-70.118-48.822-140.235-97.644-210.352-146.467c-25.199-17.546-50.398-35.093-75.599-52.639
			c-3.673-2.557-7.344-5.114-11.017-7.671c-35.024-24.386-70.046-48.772-105.068-73.158v-51.085l-59.507,17.104
			c-6.698,1.192-12.47,5.918-15.04,13.719c-2.86,8.686,0.306,17.782,7.26,22.872l130.265,95.338l-99.087,31.94
			c-16.073,5.181-19.159,26.582-5.204,36.093l41.313,28.154l477.517,325.419c8.528,13.948,23.164,40.64,32.442,77.194
			c1.246,4.908,2.393,9.996,3.419,15.253c2.827,14.508,4.707,30.314,5.057,47.278c0.025,1.22,0.044,2.445,0.054,3.677
			c0.004,0.581,0.006,1.16,0.008,1.738c0,0.214-0.002,0.427-0.003,0.64c0,0.408,0,0.816-0.003,1.222
			c0,0.086-0.002,0.172-0.003,0.258c-0.003,0.532-0.008,1.062-0.015,1.592c0,0.015-0.001,0.03-0.001,0.044
			c-0.007,0.592-0.016,1.183-0.028,1.772c-0.012,0.656-0.026,1.311-0.043,1.964c-0.378,14.57-1.884,28.28-4.14,41.032
			c-0.688,3.888-1.446,7.688-2.262,11.394c-2.962,13.44-6.7,25.675-10.706,36.571c-1.306,3.552-2.639,6.962-3.984,10.225
			c-7.187,17.433-14.68,30.68-19.793,39.043c-25.161-17.519-50.321-35.039-75.482-52.558
			c-98.99-68.926-197.978-137.851-296.967-206.777c-35.024-24.386-70.046-48.772-105.068-73.158v-51.085l-59.507,17.104
			c-6.698,1.192-12.47,5.918-15.04,13.719c-2.86,8.686,0.306,17.782,7.26,22.872l511.132,374.089
			c28.351,20.749,65.748,24.423,97.595,9.587l449.052-209.197l61.361,173.499c2.691,1.628,5.675,3.378,8.942,5.212
			c15.93,8.953,38.616,19.9,67.081,28.289c19.246,5.677,41.134,10.185,65.358,12.117c12.022,0.959,23.555,1.196,34.531,0.888
			c45.25-1.26,81.03-11.853,102.394-19.689c0,0,5.553-3.651,15.555-10.193c6.183-4.061,14.25-9.37,23.907-15.739
			c64.942-42.764,198.241-130.994,309.582-207.608C2025.545,1434.239,2128.643,1360.748,2126.727,1351.991z"/>
		<path style="fill:#D0C9AD;" d="M2126.727,1351.991l-241.048-896.996l-0.071-0.321c-3.124-14.25-21.269-18.676-30.603-7.464
			l-27.016,17.58l-59.155-5.698l-21.858-2.105l-84.38-8.129l-11.696-1.126l-0.802-0.077l-151.13-14.558l-80.363-7.741v0
			l-17.833-1.717l-0.543-0.053l-7.7-0.742l-9.774-52.559c-0.042-0.531-0.111-1.058-0.204-1.58c-0.934-5.237-4.436-9.91-10.349-12.51
			c-6.224-2.737-13.078-1.656-18.024,2.24c-0.806,0.632-1.565,1.336-2.263,2.113l-193.093,216.711L1019.13,734.021l-28.537,32.022
			l-2.653,2.979c-18.273,20.509-25.118,48.552-18.763,74.889c0.668,2.773,1.482,5.527,2.446,8.251l36.511,103.23l64.747,183.075
			l16.246,45.937l21.232,60.033l50.73,143.442l11.307,31.971l32.167,90.955l13.444,38.012l61.361,173.499
			c2.691,1.628,5.675,3.378,8.942,5.212c15.93,8.953,38.616,19.9,67.081,28.289c19.246,5.677,41.134,10.185,65.358,12.117
			c12.022,0.959,23.555,1.196,34.531,0.888c45.25-1.26,81.03-11.853,102.394-19.689c0,0,5.553-3.651,15.555-10.193
			c6.183-4.061,14.25-9.37,23.907-15.739c64.942-42.764,198.241-130.994,309.582-207.608
			C2025.545,1434.239,2128.643,1360.748,2126.727,1351.991z"/>
		<path style="fill:#0D759C;" d="M1204.564,1510.804l-32.167-90.955l-11.307-31.971l-50.73-143.442l-21.232-60.033l-16.246-45.937
			l-303.925,141.588c-15.94,7.426-33.27,10.214-50.161,8.546c-16.856-1.665-33.273-7.769-47.434-18.132l-93.651-68.542
			l-213.217-156.05l-74-54.159l-99.087,31.94c-16.073,5.181-19.159,26.582-5.204,36.093l41.313,28.154l477.517,325.419
			c8.528,13.948,23.164,40.64,32.442,77.194c1.246,4.908,2.393,9.996,3.419,15.253c2.827,14.508,4.707,30.314,5.057,47.278
			c0.025,1.22,0.044,2.445,0.054,3.677c0.004,0.581,0.006,1.16,0.008,1.738c0,0.214-0.002,0.427-0.003,0.64
			c0,0.408,0,0.816-0.003,1.222c0,0.086-0.002,0.172-0.003,0.258c-0.003,0.532-0.008,1.062-0.015,1.592
			c0,0.015-0.001,0.03-0.001,0.044c-0.007,0.592-0.016,1.183-0.028,1.772c-0.012,0.656-0.026,1.311-0.043,1.964
			c-0.378,14.57-1.884,28.28-4.14,41.032c-0.688,3.888-1.446,7.688-2.262,11.394c-2.962,13.44-6.7,25.675-10.706,36.571
			c-1.306,3.552-2.639,6.962-3.984,10.225c-7.187,17.433-14.68,30.68-19.793,39.043c-25.161-17.519-50.321-35.039-75.482-52.558
			c-98.99-68.926-197.978-137.851-296.967-206.777c-35.024-24.386-70.046-48.772-105.068-73.158v-51.085l-59.507,17.104
			c-6.698,1.192-12.47,5.918-15.04,13.719c-2.86,8.686,0.306,17.782,7.26,22.872l511.132,374.089
			c28.351,20.749,65.748,24.423,97.595,9.587l449.052-209.197L1204.564,1510.804z"/>
		<path style="fill:#004972;" d="M745.951,1553.046c0.025,1.22,0.044,2.445,0.054,3.677c0.004,0.581,0.006,1.16,0.008,1.738
			c0,0.214-0.002,0.427-0.003,0.64c0,0.408,0,0.816-0.003,1.222c0,0.086-0.002,0.172-0.003,0.258
			c-0.003,0.532-0.008,1.062-0.015,1.592c0,0.015-0.001,0.03-0.001,0.044c-0.007,0.592-0.016,1.183-0.028,1.772v0.001v-0.001
			l9.914-4.205l39.735-16.857l11.72-4.972l0.007-0.003l353.753-150.075l-50.73-143.442l-327.719,136.55l-77.607,32.336
			c8.528,13.948,23.164,40.64,32.442,77.194c1.246,4.908,2.393,9.996,3.419,15.253
			C743.722,1520.276,745.602,1536.083,745.951,1553.046z"/>
		<path style="fill:#004972;" d="M768.956,1280.054c-15.94,7.426-33.27,10.214-50.161,8.546
			c-16.856-1.665-33.273-7.769-47.434-18.132l-93.651-68.542l-213.217-156.05c-14.435,7.936-16.119,29.095-1.664,38.896
			l67.086,45.482l292.788,198.501l36.797-14.497l329.625-129.854l-16.246-45.937L768.956,1280.054z"/>
		<path style="fill:#0A7BA5;" d="M915.624,1552.261v32.553c0,25.365,26.089,42.346,49.282,32.079l239.658-106.089l-32.167-90.955
			l-235.422,100.129C924.028,1525.484,915.624,1538.192,915.624,1552.261z"/>
		<path style="fill:#004972;" d="M332.584,1444.885l-105.068-73.158v-18.04l-17.814,5.636l-7.575,2.396
			c-1.361,0.43-2.426,1.229-3.178,2.223c-2.096,2.772-1.736,7.077,1.592,9.26l26.975,17.699l15.638,10.26l72.878,47.818
			l312.955,205.343l76.046,49.897c-25.161-17.519-50.321-35.039-75.482-52.558C530.561,1582.736,431.573,1513.811,332.584,1444.885z
			"/>
		<path style="fill:#067E7F;" d="M1351.914,360.548c0.698-0.777,1.457-1.481,2.263-2.113c4.945-3.897,11.8-4.977,18.024-2.24
			c5.914,2.6,9.415,7.272,10.349,12.51c0.093,0.521,0.162,1.049,0.204,1.58l9.774,52.559l7.7,0.742l0,0l0.543,0.053l17.833,1.717v0
			l80.363,7.741L1275.46,273.764c-5.949-4.241-13.568-5.383-20.499-3.073L368.429,566.202c-17.97,5.99-21.278,29.981-5.6,40.611
			l67.086,45.482l292.788,198.501l36.797-14.497l259.628-102.279l139.691-156.762L1351.914,360.548z"/>
		<path style="fill:#067E7F;" d="M419.199,1027.237c-25.199-17.546-50.398-35.093-75.599-52.639
			c-3.673-2.557-7.344-5.114-11.017-7.671l-105.068-73.158v-18.04l-17.814,5.636l-7.575,2.397c-1.361,0.43-2.426,1.229-3.178,2.223
			c-2.096,2.772-1.736,7.077,1.592,9.261l26.975,17.699l15.638,10.26l72.878,47.818l12.735,8.356l78.832,51.724l221.388,145.262
			l76.046,49.897c-25.161-17.519-50.321-35.039-75.482-52.558C559.433,1124.882,489.316,1076.06,419.199,1027.237z"/>
		<path style="fill:#D0C9AD;" d="M745.951,1553.046c-0.349-16.964-2.229-32.77-5.057-47.278c-1.026-5.257-2.173-10.344-3.419-15.253
			c-9.278-36.554-23.914-63.246-32.442-77.194l-477.517-325.419v88.486c14.905,2.237,29.813,5.997,44.568,10.997l178.856,121.466
			c5.681,6.04,11.073,12.069,16.142,18.033c20.464,24.072,40.665,49.96,59.542,77.21l-142.833-97.002l-32.458-22.042
			l-123.818-84.089v12.931l110.44,75.003l55.054,37.389l149.448,101.494c14.86,23.067,28.613,46.97,40.665,71.46l-158.86-107.886
			l-131.665-89.418l-65.082-44.199v12.931l51.703,35.113l154.263,104.764l158.594,107.706c8.735,19.427,16.329,39.174,22.496,59.12
			L396.278,1429.12L233.86,1318.818l-6.344-4.309v12.931l154.807,105.134l236.899,160.884c1.525,5.685,2.932,11.384,4.21,17.094
			c4.997,22.401,7.898,30.952,6.12,41.109c25.161,17.519,50.321,35.039,75.482,52.558c5.113-8.363,12.606-21.61,19.793-39.043
			c1.345-3.263,2.678-6.673,3.984-10.225c4.007-10.897,7.744-23.131,10.706-36.571c0.816-3.707,1.574-7.506,2.262-11.394
			c2.256-12.752,3.762-26.463,4.14-41.032c0.017-0.653,0.031-1.307,0.043-1.964c0.012-0.589,0.021-1.179,0.028-1.772
			c0-0.014,0.001-0.029,0.001-0.044c0.006-0.53,0.012-1.06,0.015-1.592c0.001-0.086,0.003-0.172,0.003-0.258
			c0.003-0.407,0.003-0.815,0.003-1.222c0.001-0.213,0.003-0.427,0.003-0.64c-0.002-0.578-0.004-1.158-0.008-1.738
			C745.996,1555.491,745.976,1554.267,745.951,1553.046z"/>
		<path style="fill:#D0C9AD;" d="M389.812,959.702l76.378,51.871l153.032,103.928c1.525,5.685,2.932,11.384,4.21,17.094
			c4.997,22.401,7.898,30.952,6.12,41.109c25.161,17.519,50.321,35.039,75.482,52.558c5.113-8.363,12.606-21.61,19.793-39.043
			c1.345-3.263,2.678-6.673,3.984-10.225c4.007-10.897,7.744-23.131,10.706-36.572c0.816-3.707,1.574-7.506,2.262-11.394
			c2.256-12.753,3.762-26.463,4.14-41.032c0.078-3.04,0.11-6.117,0.086-9.231c-0.009-1.232-0.029-2.457-0.054-3.677
			c-0.349-16.964-2.229-32.77-5.057-47.278c-1.026-5.257-2.173-10.345-3.419-15.253c-9.278-36.553-23.914-63.246-32.442-77.194
			l-3.356-2.287l-73.622-50.173l-400.54-272.959v88.486c14.905,2.238,29.813,5.997,44.568,10.997L450.94,830.895
			c5.681,6.041,11.073,12.069,16.142,18.033c18.302,21.528,36.393,44.509,53.515,68.616c2.023,2.849,4.032,5.714,6.027,8.594
			l-10.522-7.146l-132.311-89.856l-32.458-22.042l-123.818-84.089v12.931l110.44,75.003l55.054,37.389l110.182,74.827l39.266,26.667
			c6.383,9.907,12.561,19.97,18.489,30.166c7.871,13.542,15.3,27.323,22.176,41.294l-48.086-32.657l-75.623-51.358l-35.151-23.871
			l-131.665-89.418l-65.082-44.199v12.931l51.703,35.113l154.263,104.764l13.021,8.843l75.763,51.453l69.81,47.41
			c8.735,19.427,16.329,39.174,22.496,59.12l-135.609-92.096l-76.238-51.776l-6.446-4.377L233.86,840.86l-6.344-4.309v12.931
			l154.807,105.133L389.812,959.702z"/>
		<path style="fill:#AEA992;" d="M450.94,1308.853l289.955,196.915c-1.026-5.257-2.173-10.344-3.419-15.253l-337.769-229.388
			l-72.641-49.333l-99.549-67.606v12.931l44.568,30.267L450.94,1308.853z"/>
		<path style="fill:#AEA992;" d="M393.009,1326.285l149.448,101.494l203.461,138.175c0.017-0.653,0.031-1.307,0.043-1.964
			c0.012-0.589,0.021-1.179,0.028-1.772c0-0.014,0.001-0.029,0.001-0.044c0.006-0.53,0.012-1.06,0.015-1.592
			c0.001-0.086,0.003-0.172,0.003-0.258c0.003-0.407,0.003-0.815,0.003-1.222c0.001-0.213,0.003-0.427,0.003-0.64
			c-0.002-0.578-0.004-1.158-0.008-1.738c-0.009-1.232-0.029-2.457-0.054-3.677l-219.327-148.95l-142.833-97.002l-32.458-22.042
			l-123.818-84.089v12.931l110.44,75.003L393.009,1326.285z"/>
		<path style="fill:#AEA992;" d="M433.481,1410.544l158.594,107.706l147.441,100.131c0.816-3.707,1.574-7.506,2.262-11.394
			l-158.656-107.747l-158.86-107.886l-131.665-89.418l-65.082-44.199v12.931l51.703,35.113L433.481,1410.544z"/>
		<path style="fill:#AEA992;" d="M382.323,1432.574l236.899,160.884l105.604,71.719c1.345-3.263,2.678-6.673,3.984-10.225
			l-114.238-77.583L396.278,1429.12L233.86,1318.818l-6.344-4.309v12.931L382.323,1432.574z"/>
		<path style="fill:#AEA992;" d="M450.94,830.895l108.942,73.986l74.532,50.617l106.48,72.312
			c-1.026-5.257-2.173-10.345-3.419-15.253l-90.289-61.317l-74.392-50.522L399.706,783.17l-72.641-49.333l-99.549-67.606v12.931
			l44.568,30.267L450.94,830.895z"/>
		<path style="fill:#AEA992;" d="M393.009,848.327l110.182,74.827l39.266,26.667l35.883,24.368l167.578,113.807
			c0.078-3.04,0.11-6.117,0.086-9.231c-0.009-1.232-0.029-2.457-0.054-3.677l-154.84-105.156l-64.487-43.795l-10.522-7.146
			l-132.311-89.856l-32.458-22.042l-123.818-84.089v12.931l110.44,75.003L393.009,848.327z"/>
		<path style="fill:#AEA992;" d="M433.481,932.586l13.021,8.843l75.763,51.453l69.81,47.41l147.441,100.131
			c0.816-3.707,1.574-7.506,2.262-11.394l-158.656-107.747l-48.086-32.657l-75.623-51.358l-35.151-23.871l-131.665-89.418
			l-65.082-44.199v12.931l51.703,35.113L433.481,932.586z"/>
		<path style="fill:#AEA992;" d="M382.323,954.616l7.489,5.086l76.378,51.871l153.032,103.928l105.604,71.719
			c1.345-3.263,2.678-6.673,3.984-10.225l-114.238-77.583l-135.609-92.096l-76.238-51.776l-6.446-4.377L233.86,840.86l-6.344-4.309
			v12.931L382.323,954.616z"/>
		<path style="fill:#AEA992;" d="M1400.771,423.638l-0.543-0.053l0,0l-6.191,7.375l-108.564,129.327l-86.301,102.807l-41.104,48.965
			l-80.297,95.654l-9.567,11.396c5.092,1.641,10.382,3.237,15.863,4.767l21.284-25.356l79.948-95.238l43.55-51.878l59.596-70.994
			l109.195-130.079l20.965-24.974v0L1400.771,423.638z"/>
		<path style="fill:#AEA992;" d="M1144.535,836.004l60.932-70.856l68.591-79.764l67.354-78.325l38.248-44.476l31.946-37.15
			l80.011-93.043l-18.53-1.785l-65.049,75.644l-57.696,67.095l-39.274,45.67l-55.801,64.89l-77.929,90.621l-50.623,58.869
			c1.671,0.282,3.352,0.556,5.047,0.821C1136.078,834.887,1140.335,835.481,1144.535,836.004z"/>
		<path style="fill:#AEA992;" d="M1588.413,496.859l-24.207,22.431l-220.77,204.571l-46.55,43.135l-77.191,71.526
			c8.886-0.505,17.142-1.259,24.693-2.14l65.147-60.368l46.99-43.542l301.642-279.509l4.429-4.105l-11.696-1.126l-0.802-0.077
			l-7.776-0.749L1588.413,496.859z"/>
		<path style="fill:#AEA992;" d="M1215.129,838.757l71.3-79.215l41.374-45.966l141.069-156.729l79.613-88.451l25.287-28.093
			l-18.835-1.815l-18.919,21.02l-98.859,109.832l-122.21,135.779l-41.038,45.593l-79.639,88.479
			C1201.535,839.221,1208.497,839.061,1215.129,838.757z"/>
		<path style="fill:#AEA992;" d="M1697.822,495.993c-95.08,75.588-214.674,171.354-316.322,252.91
			c-14.5,11.635-28.636,22.98-42.284,33.936l47.193-30.706l70.583-45.927l11.009-7.163c28.992-23.232,58.531-46.883,87.794-70.287
			c59.084-47.254,117.035-93.496,167.069-133.229c16.234-12.892,31.636-25.101,45.971-36.435l-21.858-2.105
			c-11.901,9.422-24.437,19.368-37.493,29.738C1705.64,489.778,1701.754,492.867,1697.822,495.993z"/>
		<path style="fill:#D12D24;" d="M2126.727,1351.991l-241.048-896.996l-0.071-0.321c-3.124-14.25-21.269-18.676-30.603-7.464
			l-27.016,17.58l-83.983,54.649l-276.005,179.604l-11.009,7.163l-70.583,45.927l-47.193,30.706l-10.511,6.84l-55.405,36.05
			c-5.742,2.776-13.806,6.427-23.922,10.04c-1.626,0.21-3.292,0.414-4.99,0.613c-7.551,0.882-15.807,1.635-24.693,2.14
			c-1.504,0.086-3.025,0.164-4.566,0.235c-6.632,0.304-13.594,0.464-20.858,0.434c-15.326-0.064-31.993-0.978-49.736-3.186
			c-4.2-0.523-8.457-1.117-12.773-1.791c-1.695-0.265-3.376-0.539-5.047-0.821c-15.268-2.576-29.51-5.852-42.648-9.517
			c-5.481-1.529-10.771-3.126-15.863-4.767c-4.201-1.354-8.267-2.739-12.199-4.14c-12.311-4.392-23.28-8.955-32.807-13.297
			c-0.009-0.006-0.018-0.013-0.026-0.019c17.983-21.167,35.967-42.334,53.952-63.501c11.482-13.516,22.966-27.032,34.449-40.548
			l6.817-8.023l6.138-7.224c16.743-19.704,33.483-39.406,50.231-59.115c6.692-7.881,13.387-15.761,20.081-23.643l2.432-2.863
			l55-64.737l24.729-29.106c14.719-17.325,29.438-34.65,44.157-51.974c9.153-10.77,18.307-21.538,27.46-32.306l15.498,1.493
			l28.414,2.737l-9.774-52.559c-0.042-0.531-0.111-1.058-0.204-1.58c-0.934-5.237-4.436-9.91-10.349-12.51
			c-6.224-2.737-13.078-1.656-18.024,2.24c-0.806,0.632-1.565,1.336-2.263,2.113l-193.093,216.711L1019.13,734.021l-28.537,32.022
			l-2.653,2.979c-18.273,20.509-25.118,48.552-18.763,74.889c0.668,2.773,1.482,5.527,2.446,8.251l36.511,103.23l64.747,183.075
			l16.246,45.937l21.232,60.033l50.73,143.442l11.307,31.971l32.167,90.955l13.444,38.012l61.361,173.499
			c2.691,1.628,5.675,3.378,8.942,5.212c15.93,8.953,38.616,19.9,67.081,28.289c19.246,5.677,41.134,10.185,65.358,12.117
			c12.022,0.959,23.555,1.196,34.531,0.888c45.25-1.26,81.03-11.853,102.394-19.689c0,0,5.553-3.651,15.555-10.193
			c6.183-4.061,14.25-9.37,23.907-15.739c64.942-42.764,198.241-130.994,309.582-207.608
			C2025.545,1434.239,2128.643,1360.748,2126.727,1351.991z"/>
		<path style="fill:#902214;" d="M1111.572,697.603l6.817-8.023l6.138-7.224l70.311-82.757l2.432-2.863l55-64.737l24.729-29.107
			l42.961-50.566l28.644-33.713l0.012,0.001l15.498,1.493l-3.366-15.768l-0.004-0.017l-1.432-6.712
			c-0.258-1.205-0.857-2.187-1.649-2.915c-2.21-2.032-5.942-2.079-8.095,0.602l-17.452,21.727l-10.117,12.597l-47.151,58.701
			l-170.336,212.062l-31.364,39.048l-49.775,61.969l-0.201,0.251c17.983-21.167,35.967-42.334,53.952-63.501
			C1088.605,724.635,1100.089,711.119,1111.572,697.603z"/>
		<path style="fill:#DC3C39;" d="M1804.033,587.691l-34.069,21.793l-304.405,194.721l-61.39,39.27l-40.056,25.622
			c-0.844,0.54-1.658,1.111-2.442,1.711c-4.568,3.495-8.102,7.972-10.452,12.974c-3.839,8.171-4.511,17.744-1.333,26.732
			l30.03,84.916l23.099,65.318l19.031,53.818l50.002,141.391l11.204,31.678l30.516,86.293l11.265,31.855l63.269,178.908
			c7.501,21.212,32.696,30.049,51.804,18.171l402.368-250.127c13.35-8.3,19.586-24.441,15.282-39.561l-200.865-705.458
			C1850.429,585.021,1823.912,574.975,1804.033,587.691z"/>
		<path style="fill:#A6261A;" d="M1573.223,1738.924c-32.438-89.567-70.033-193.594-109.925-304.38
			c-3.939-10.941-7.902-21.948-11.884-33.013c-10.315-28.666-20.761-57.722-31.292-87.045c-3.78-10.526-7.572-21.086-11.373-31.675
			c-16.801-46.815-33.769-94.177-50.716-141.573c-6.56-18.347-13.116-36.699-19.66-55.026c-7.303-20.463-14.59-40.894-21.843-61.254
			c-15.029-42.188-29.916-84.062-44.518-125.254c-4.009-11.307-7.997-22.562-11.96-33.758c-1.798-5.077-3.59-10.144-5.377-15.196
			c-1.768-4.997-3.532-9.983-5.289-14.954c-0.002-0.009-0.005-0.018-0.009-0.027c-1.626,0.21-3.292,0.414-4.99,0.613
			c-7.551,0.882-15.807,1.635-24.693,2.14c-1.504,0.086-3.025,0.164-4.566,0.235c-6.632,0.304-13.594,0.464-20.858,0.434
			c-15.326-0.064-31.993-0.978-49.736-3.186c-4.2-0.523-8.457-1.117-12.773-1.791c-1.695-0.265-3.376-0.539-5.047-0.821
			c-15.268-2.576-29.51-5.852-42.648-9.517c-5.481-1.529-10.771-3.126-15.863-4.767c-4.201-1.354-8.267-2.739-12.199-4.14
			c-12.311-4.392-23.28-8.955-32.807-13.297l-0.039-0.018c-11.129-7.535-21.7-17.917-28.304-24.931
			c-4.123-4.378-6.7-7.444-6.902-7.685c-0.008-0.01-0.013-0.016-0.013-0.016c-18.273,20.509-25.118,48.552-18.763,74.889
			c0.668,2.773,1.482,5.527,2.446,8.251l36.511,103.23l64.75,183.073l16.247,45.936l21.234,60.033l50.733,143.441l11.307,31.97
			l32.17,90.954l13.443,38.011l61.368,173.508c2.686,1.626,5.664,3.376,8.924,5.208c15.93,8.953,38.616,19.9,67.081,28.289
			c19.246,5.673,41.135,10.176,65.363,12.104c12.02,0.965,23.55,1.206,34.525,0.9c45.25-1.26,81.03-11.853,102.394-19.689
			c0,0,5.553-3.651,15.555-10.193C1573.227,1738.933,1573.224,1738.929,1573.223,1738.924z"/>
		<path style="fill:#691907;" d="M1056.004,814.968c-12.311-4.392-23.28-8.955-32.807-13.297l-0.039-0.018
			c5.207,3.911,12.773,9.267,22.528,14.995c0.323,0.19,0.648,0.379,0.975,0.57c0.313,0.182,0.632,0.365,0.95,0.548
			c4.566,2.625,9.583,5.313,15.035,7.962c4.52,2.197,9.339,4.366,14.449,6.451c11.817,4.825,25.186,9.197,39.994,12.407
			c5.596,1.213,11.394,2.261,17.396,3.104c3.956,0.555,7.998,1.024,12.127,1.391c12.745,1.14,24.853,1.195,36.21,0.481
			c0.008-0.001,0.016-0.001,0.024-0.001c0.746-0.047,1.489-0.099,2.23-0.152c0.965-0.07,1.926-0.145,2.88-0.226
			c0.134-0.011,0.266-0.023,0.398-0.034c0.517-0.045,1.032-0.09,1.545-0.137l0.039-0.004c1.04-0.096,2.072-0.2,3.1-0.309
			c0.157-0.017,0.317-0.033,0.474-0.05c0.488-0.053,0.975-0.107,1.459-0.162c0.135-0.015,0.27-0.031,0.404-0.047
			c1.034-0.12,2.059-0.244,3.077-0.376c0.002,0,0.002,0,0.003,0c0.499-0.064,0.995-0.131,1.489-0.198l0.416-0.057
			c1.547-0.212,3.073-0.436,4.583-0.673c0.062-0.01,0.126-0.02,0.187-0.029c0.98-0.154,1.951-0.315,2.915-0.479
			c1.21-0.206,2.408-0.419,3.595-0.639c11.499-2.138,21.848-4.924,30.868-7.864c2.383-0.777,4.675-1.564,6.869-2.353
			c-1.626,0.21-3.292,0.414-4.99,0.613c-7.551,0.882-15.807,1.635-24.693,2.14c-1.504,0.086-3.025,0.164-4.566,0.235
			c-6.632,0.304-13.594,0.464-20.858,0.434c-15.326-0.064-31.993-0.978-49.736-3.186c-4.2-0.523-8.457-1.117-12.773-1.791
			c-1.695-0.265-3.376-0.539-5.047-0.821c-15.268-2.576-29.51-5.852-42.648-9.517c-5.481-1.529-10.771-3.126-15.863-4.767
			C1064.003,817.755,1059.936,816.37,1056.004,814.968z"/>
		<path style="fill:#691907;" d="M1198.853,1131.76c-1.149,0.236-2.282,0.541-3.397,0.92c-7.81,2.656-14.149,8.635-18.998,17.319
			c-8.925,15.987-12.794,41.149-11.466,71.674c1.447,33.232,9.052,72.817,23.001,113.828c4.158,12.224,8.685,24.002,13.497,35.237
			c4.59,10.717,9.44,20.938,14.479,30.578c18.445,35.291,39.41,62.773,59.342,78.169c13.377,10.333,26.289,15.222,37.666,13.374
			c1.558-0.253,3.089-0.632,4.587-1.142c14.098-4.794,23.406-20.409,27.795-43.24c4.981-25.914,3.622-61.126-4.27-100.378
			c-2.169-10.795-4.836-21.896-7.998-33.191c-2.401-8.574-5.087-17.26-8.063-26.012c-15.072-44.316-34.996-82.794-55.804-110.653
			c-17.21-23.043-35.025-38.819-51.196-44.619C1211.295,1131.21,1204.851,1130.523,1198.853,1131.76z"/>
	</g>
</g>
</svg>
